<svg width="73" height="67" viewBox="0 0 73 67" xmlns="http://www.w3.org/2000/svg" xmlns:xlink="http://www.w3.org/1999/xlink"><title>ico-thumbs</title><defs><path id="a" d="M0 0h1440v1240H0z"/></defs><g fill="none" fill-rule="evenodd"><use fill="#ED4F4F" xlink:href="#a" transform="translate(-1104 -307)"/><path d="M23.662 29.438c7.432-10.8 10.067-13.876 9.628-20.126-.44-6.25.818-7.97 3.812-8.278 2.994-.308 8.617 1.304 9.604 11.534.427 4.426-2.777 13.143-2.777 13.143s20.427.014 22.41.014c3.174 0 5.66 1.34 5.66 5.61 0 4.002-4.483 5.205-4.483 5.205s2.87 1.106 2.87 4.47c0 3.408-2.987 4.944-4.952 4.944 1.223.6 2.932 1.753 2.556 4.668-.375 2.913-2.48 3.973-4.56 4.603 1.344.818 2.323 3.084 1.575 4.826-1.007 2.346-3.664 4.93-9.63 4.93H27.514c-2.11 0-3.68-.95-4.01-2.123V30.74s0-1.032.16-1.302zM2 29.868h17.16v35.46H8.485L2 29.867z" stroke="#FFF" stroke-width="2"/></g></svg>