<svg width="82" height="67" viewBox="0 0 82 67" xmlns="http://www.w3.org/2000/svg" xmlns:xlink="http://www.w3.org/1999/xlink"><title>ico-id</title><defs><path id="a" d="M0 0h1440v1240H0z"/></defs><g fill="none" fill-rule="evenodd"><use fill="#ED4F4F" xlink:href="#a" transform="translate(-679 -311)"/><path d="M29.39 8.966a2.858 2.858 0 0 1 2.881-2.881h3.305V3.88A2.858 2.858 0 0 1 38.458 1h5.084a2.858 2.858 0 0 1 2.882 2.881v2.204h3.305a2.858 2.858 0 0 1 2.881 2.881v5.593a2.858 2.858 0 0 1-2.881 2.882H32.27a2.858 2.858 0 0 1-2.881-2.882V8.966zM81 16.34v43.22a6.257 6.257 0 0 1-6.271 6.272H7.27A6.257 6.257 0 0 1 1 59.559V16.34a6.257 6.257 0 0 1 6.271-6.271H26v4.576a6.257 6.257 0 0 0 6.271 6.271H49.73A6.257 6.257 0 0 0 56 14.645v-4.577h18.729A6.257 6.257 0 0 1 81 16.339zM47.525 38.797c0 .423.34.678.678.678h17.543a.668.668 0 0 0 .678-.678v-2.543a.668.668 0 0 0-.678-.678H48.203a.668.668 0 0 0-.678.678v2.543zM37.355 52.44c0-.848-.338-1.695-1.016-2.204-3.729-3.05-7.712-5.084-8.56-5.508-.084-.085-.169-.17-.169-.254v-2.458c.34-.763.593-1.61.678-2.288.34.254.848.085 1.526-2.034.508-1.78.17-2.288-.255-2.458h-.084c.084-.254.084-.423.084-.423 1.61-6.78-2.203-6.441-2.203-6.441-.34-1.356-2.203-2.712-3.983-2.373-1.78.339-5.424-.085-5.424-.085-.085.763.593 1.271.593 1.271-3.728 2.289-2.203 7.543-2.203 7.543-.593-.085-1.271.254-.593 2.542.423 1.61.932 2.119 1.186 2.119.17.932.424 1.949 1.017 2.881v2.119c0 .085-.085.17-.17.254-.847.424-4.83 2.458-8.559 5.509-.678.508-1.017 1.355-1.017 2.203v4.068h12.628l1.27-5.678c-2.542-3.475.17-3.644.679-3.73.508 0 3.22.17.678 3.73l1.27 5.678h12.628V52.44zm22.967-1.102a.668.668 0 0 0-.678-.678h-11.44a.668.668 0 0 0-.679.678v2.542c0 .424.34.678.678.678h11.441a.668.668 0 0 0 .678-.678V51.34zm11.695-7.542a.668.668 0 0 0-.678-.678H48.203a.668.668 0 0 0-.678.678v2.542c0 .424.34.678.678.678H71.34a.668.668 0 0 0 .678-.678v-2.542zm3.136-15.17a.668.668 0 0 0-.678-.678H48.203a.668.668 0 0 0-.678.678v2.542c0 .424.34.678.678.678h26.272a.668.668 0 0 0 .678-.678v-2.542z" stroke="#FFF" stroke-width="2"/></g></svg>