<?xml version="1.0" encoding="UTF-8" standalone="no"?>
<svg width="82px" height="67px" viewBox="0 0 82 67" version="1.1" xmlns="http://www.w3.org/2000/svg" xmlns:xlink="http://www.w3.org/1999/xlink" xmlns:sketch="http://www.bohemiancoding.com/sketch/ns">
    <!-- Generator: sketchtool 3.5.1 (25234) - http://www.bohemiancoding.com/sketch -->
    <title>ico-id</title>
    <desc>Created with sketchtool.</desc>
    <defs>
        <rect id="path-1" x="0" y="0" width="1440" height="1240"></rect>
    </defs>
    <g id="Page-1" stroke="none" stroke-width="1" fill="none" fill-rule="evenodd" sketch:type="MSPage">
        <g id="1-1-1-Homepage" sketch:type="MSArtboardGroup" transform="translate(-679.000000, -1111.000000)">
            <g id="HOW-IT-WORKS" sketch:type="MSLayerGroup" transform="translate(0.000000, 800.000000)">
                <g id="IMG">
                    <mask id="mask-2" sketch:name="Mask" fill="white">
                        <use xlink:href="#path-1"></use>
                    </mask>
                    <use id="Mask" fill="#ED4F4F" sketch:type="MSShapeGroup" xlink:href="#path-1"></use>
                </g>
                <g id="02" transform="translate(540.000000, 286.000000)" stroke="#FFFFFF" stroke-width="2" sketch:type="MSShapeGroup">
                    <path d="M168.389831,33.9661017 C168.389831,32.3559322 169.661017,31.0847458 171.271186,31.0847458 L174.576271,31.0847458 L174.576271,28.8813559 C174.576271,27.2711864 175.847458,26 177.457627,26 L182.542373,26 C184.152542,26 185.423729,27.2711864 185.423729,28.8813559 L185.423729,31.0847458 L188.728814,31.0847458 C190.338983,31.0847458 191.610169,32.3559322 191.610169,33.9661017 L191.610169,39.559322 C191.610169,41.1694915 190.338983,42.440678 188.728814,42.440678 L171.271186,42.440678 C169.661017,42.440678 168.389831,41.1694915 168.389831,39.559322 L168.389831,33.9661017 Z M220,41.3389831 L220,84.559322 C220,88.0338983 217.20339,90.8305085 213.728814,90.8305085 L146.271186,90.8305085 C142.79661,90.8305085 140,88.0338983 140,84.559322 L140,41.3389831 C140,37.8644068 142.79661,35.0677966 146.271186,35.0677966 L165,35.0677966 L165,39.6440678 C165,43.1186441 167.79661,45.9152542 171.271186,45.9152542 L188.728814,45.9152542 C192.20339,45.9152542 195,43.1186441 195,39.6440678 L195,35.0677966 L213.728814,35.0677966 C217.20339,35.0677966 220,37.8644068 220,41.3389831 L220,41.3389831 Z M186.525424,63.7966102 C186.525424,64.220339 186.864407,64.4745763 187.20339,64.4745763 L204.745763,64.4745763 C205.169492,64.4745763 205.423729,64.1355932 205.423729,63.7966102 L205.423729,61.2542373 C205.423729,60.8305085 205.084746,60.5762712 204.745763,60.5762712 L187.20339,60.5762712 C186.779661,60.5762712 186.525424,60.9152542 186.525424,61.2542373 L186.525424,63.7966102 L186.525424,63.7966102 Z M176.355932,77.440678 C176.355932,76.5932203 176.016949,75.7457627 175.338983,75.2372881 C171.610169,72.1864407 167.627119,70.1525424 166.779661,69.7288136 C166.694915,69.6440678 166.610169,69.559322 166.610169,69.4745763 L166.610169,67.0169492 C166.949153,66.2542373 167.20339,65.4067797 167.288136,64.7288136 C167.627119,64.9830508 168.135593,64.8135593 168.813559,62.6949153 C169.322034,60.9152542 168.983051,60.4067797 168.559322,60.2372881 L168.474576,60.2372881 C168.559322,59.9830508 168.559322,59.8135593 168.559322,59.8135593 C170.169492,53.0338983 166.355932,53.3728814 166.355932,53.3728814 C166.016949,52.0169492 164.152542,50.6610169 162.372881,51 C160.59322,51.3389831 156.949153,50.9152542 156.949153,50.9152542 C156.864407,51.6779661 157.542373,52.1864407 157.542373,52.1864407 C153.813559,54.4745763 155.338983,59.7288136 155.338983,59.7288136 C154.745763,59.6440678 154.067797,59.9830508 154.745763,62.2711864 C155.169492,63.8813559 155.677966,64.3898305 155.932203,64.3898305 C156.101695,65.3220339 156.355932,66.3389831 156.949153,67.2711864 L156.949153,69.3898305 C156.949153,69.4745763 156.864407,69.559322 156.779661,69.6440678 C155.932203,70.0677966 151.949153,72.1016949 148.220339,75.1525424 C147.542373,75.6610169 147.20339,76.5084746 147.20339,77.3559322 L147.20339,81.4237288 L159.830508,81.4237288 L161.101695,75.7457627 C158.559322,72.2711864 161.271186,72.1016949 161.779661,72.0169492 L161.779661,72.0169492 L161.779661,72.0169492 C162.288136,72.0169492 165,72.1864407 162.457627,75.7457627 L163.728814,81.4237288 L176.355932,81.4237288 L176.355932,77.440678 L176.355932,77.440678 Z M199.322034,76.3389831 C199.322034,75.9152542 198.983051,75.6610169 198.644068,75.6610169 L187.20339,75.6610169 C186.779661,75.6610169 186.525424,76 186.525424,76.3389831 L186.525424,78.8813559 C186.525424,79.3050847 186.864407,79.559322 187.20339,79.559322 L198.644068,79.559322 C199.067797,79.559322 199.322034,79.220339 199.322034,78.8813559 L199.322034,76.3389831 L199.322034,76.3389831 Z M211.016949,68.7966102 C211.016949,68.3728814 210.677966,68.1186441 210.338983,68.1186441 L187.20339,68.1186441 C186.779661,68.1186441 186.525424,68.4576271 186.525424,68.7966102 L186.525424,71.3389831 C186.525424,71.7627119 186.864407,72.0169492 187.20339,72.0169492 L210.338983,72.0169492 C210.762712,72.0169492 211.016949,71.6779661 211.016949,71.3389831 L211.016949,68.7966102 L211.016949,68.7966102 Z M214.152542,53.6271186 C214.152542,53.2033898 213.813559,52.9491525 213.474576,52.9491525 L187.20339,52.9491525 C186.779661,52.9491525 186.525424,53.2881356 186.525424,53.6271186 L186.525424,56.1694915 C186.525424,56.5932203 186.864407,56.8474576 187.20339,56.8474576 L213.474576,56.8474576 C213.898305,56.8474576 214.152542,56.5084746 214.152542,56.1694915 L214.152542,53.6271186 L214.152542,53.6271186 Z" id="ico-id"></path>
                </g>
            </g>
        </g>
        <g id="Moviepitch---Website" sketch:type="MSArtboardGroup" transform="translate(-929.000000, -2607.000000)"></g>
    </g>
</svg>