<?xml version="1.0" encoding="UTF-8" standalone="no"?>
<svg width="68px" height="68px" viewBox="0 0 68 68" version="1.1" xmlns="http://www.w3.org/2000/svg" xmlns:xlink="http://www.w3.org/1999/xlink" xmlns:sketch="http://www.bohemiancoding.com/sketch/ns">
    <!-- Generator: sketchtool 3.5.1 (25234) - http://www.bohemiancoding.com/sketch -->
    <title>ico-pen</title>
    <desc>Created with sketchtool.</desc>
    <defs>
        <rect id="path-1" x="0" y="0" width="1440" height="1240"></rect>
    </defs>
    <g id="Page-1" stroke="none" stroke-width="1" fill="none" fill-rule="evenodd" sketch:type="MSPage">
        <g id="1-1-1-Homepage" sketch:type="MSArtboardGroup" transform="translate(-266.000000, -1109.000000)">
            <g id="HOW-IT-WORKS" sketch:type="MSLayerGroup" transform="translate(0.000000, 800.000000)">
                <g id="IMG">
                    <mask id="mask-2" sketch:name="Mask" fill="white">
                        <use xlink:href="#path-1"></use>
                    </mask>
                    <use id="Mask" fill="#ED4F4F" sketch:type="MSShapeGroup" xlink:href="#path-1"></use>
                </g>
                <g id="01" transform="translate(120.000000, 289.000000)" stroke="#FFFFFF" stroke-width="2" sketch:type="MSShapeGroup">
                    <path d="M211.834925,44.6599005 L203.407805,53.0951429 L180.912472,30.6018401 L189.347714,22.1665977 C190.903178,20.6111341 193.415069,20.6111341 194.970532,22.1665977 L211.834925,39.0391131 C213.388358,40.592546 213.388358,43.1044369 211.834925,44.6599005 L211.834925,44.6599005 Z M178.098017,33.416295 L159.830458,40.4422793 C159.345137,40.6636181 158.512578,41.0595912 158.078023,41.5022688 C157.720632,41.8515374 157.150025,42.6373917 157.016003,43.2547036 L148,83.2012824 L165.451245,65.7398839 C164.730371,64.5275971 164.285663,63.1244308 164.285663,61.6095799 C164.285663,57.1218847 167.916432,53.4829935 172.404127,53.4829935 C176.891822,53.4829935 180.524621,57.1218847 180.524621,61.6095799 C180.524621,66.097275 176.893853,69.7300744 172.404127,69.7300744 C170.881153,69.7300744 169.480018,69.2853662 168.257578,68.5563695 L150.806332,86.0076149 L190.750881,76.98552 C191.329611,76.8352533 192.176384,76.3986676 192.572357,76.0026945 C192.929748,75.6453034 193.317599,74.9630113 193.563305,74.1812182 L200.589289,55.903506 L178.098017,33.416295 L178.098017,33.416295 Z" id="ico-pen"></path>
                </g>
            </g>
        </g>
        <g id="Moviepitch---Website" sketch:type="MSArtboardGroup" transform="translate(-516.000000, -2605.000000)"></g>
    </g>
</svg>