<svg width="82" height="67" viewBox="0 0 82 67" xmlns="http://www.w3.org/2000/svg" xmlns:xlink="http://www.w3.org/1999/xlink"><title>ico-id</title><defs><path id="a" d="M0 0h1440v1240H0z"/></defs><g fill="none" fill-rule="evenodd"><use fill="#ED4F4F" xlink:href="#a" transform="translate(-679 -311)"/><path d="M29.39 8.966c0-1.61 1.27-2.88 2.88-2.88h3.306V3.88c0-1.61 1.27-2.88 2.882-2.88h5.084c1.61 0 2.882 1.27 2.882 2.88v2.205h3.305c1.61 0 2.88 1.27 2.88 2.88v5.594c0 1.61-1.27 2.88-2.88 2.88H32.27c-1.61 0-2.88-1.27-2.88-2.88V8.965zM81 16.34v43.22a6.257 6.257 0 0 1-6.27 6.27H7.27A6.257 6.257 0 0 1 1 59.56V16.34a6.257 6.257 0 0 1 6.27-6.272H26v4.576a6.257 6.257 0 0 0 6.27 6.27h17.46a6.257 6.257 0 0 0 6.27-6.27v-4.576h18.73a6.257 6.257 0 0 1 6.27 6.27zM47.525 38.796c0 .423.34.678.678.678h17.543c.423 0 .678-.34.678-.678v-2.543a.668.668 0 0 0-.678-.678H48.203a.668.668 0 0 0-.678.678v2.543zM37.355 52.44c0-.847-.338-1.694-1.016-2.203-3.73-3.05-7.713-5.084-8.56-5.508-.085-.086-.17-.17-.17-.255v-2.458c.34-.763.593-1.61.678-2.288.34.253.848.084 1.526-2.035.508-1.78.17-2.288-.255-2.458h-.085c.084-.254.084-.423.084-.423 1.61-6.78-2.204-6.44-2.204-6.44-.34-1.357-2.203-2.713-3.983-2.374-1.78.34-5.424-.085-5.424-.085-.086.763.592 1.27.592 1.27-3.728 2.29-2.203 7.544-2.203 7.544-.594-.086-1.272.253-.594 2.54.423 1.61.932 2.12 1.186 2.12.17.932.424 1.95 1.017 2.88v2.12c0 .085-.086.17-.17.254-.848.424-4.83 2.458-8.56 5.51-.678.507-1.017 1.354-1.017 2.202v4.068H20.83l1.272-5.678c-2.543-3.475.17-3.644.678-3.73.508 0 3.22.17.678 3.73l1.27 5.678h12.628V52.44zm22.967-1.1a.668.668 0 0 0-.678-.68h-11.44a.668.668 0 0 0-.68.68v2.54c0 .425.34.68.68.68h11.44c.424 0 .678-.34.678-.68v-2.54zm11.695-7.543a.668.668 0 0 0-.678-.678H48.202a.668.668 0 0 0-.678.677v2.542c0 .423.34.677.678.677H71.34c.423 0 .677-.34.677-.678v-2.543zm3.136-15.17a.668.668 0 0 0-.678-.678H48.203a.668.668 0 0 0-.678.677v2.542c0 .423.34.677.678.677h26.272c.423 0 .678-.34.678-.678v-2.543z" stroke="#FFF" stroke-width="2"/></g></svg>