<svg width="73" height="67" viewBox="0 0 73 67" xmlns="http://www.w3.org/2000/svg" xmlns:xlink="http://www.w3.org/1999/xlink"><title>ico-thumbs</title><defs><path id="a" d="M0 0h1440v1240H0z"/></defs><g fill="none" fill-rule="evenodd"><use fill="#ED4F4F" xlink:href="#a" transform="translate(-1104 -307)"/><path d="M23.662 29.438c7.432-10.799 10.067-13.876 9.628-20.126-.44-6.25.818-7.97 3.812-8.278 2.994-.308 8.617 1.304 9.604 11.534.427 4.426-2.777 13.143-2.777 13.143s20.428.013 22.412.013c3.173 0 5.659 1.34 5.659 5.61 0 4.002-4.483 5.205-4.483 5.205s2.87 1.107 2.87 4.471c0 3.408-2.987 4.944-4.952 4.944 1.223.6 2.932 1.753 2.556 4.668-.376 2.913-2.482 3.973-4.56 4.603 1.343.818 2.322 3.084 1.574 4.826-1.007 2.345-3.664 4.93-9.629 4.93H27.513c-2.111 0-3.68-.952-4.01-2.124V30.739s0-1.031.159-1.301zM2 29.869h17.161v35.458H8.484L2 29.87z" stroke="#FFF" stroke-width="2"/></g></svg>