<svg width="68" height="68" viewBox="0 0 68 68" xmlns="http://www.w3.org/2000/svg" xmlns:xlink="http://www.w3.org/1999/xlink"><title>ico-pen</title><defs><path id="a" d="M0 0h1440v1240H0z"/></defs><g fill="none" fill-rule="evenodd"><use fill="#ED4F4F" xlink:href="#a" transform="translate(-266 -309)"/><path d="M65.835 24.66l-8.427 8.435-22.496-22.493 8.436-8.435a3.97 3.97 0 0 1 5.623 0L65.836 19.04a3.972 3.972 0 0 1 0 5.62zM32.098 13.416L13.83 20.442c-.485.222-1.317.618-1.752 1.06-.357.35-.928 1.135-1.062 1.753L2 63.2l17.45-17.46c-.72-1.212-1.164-2.616-1.164-4.13 0-4.488 3.63-8.127 8.118-8.127s8.12 3.64 8.12 8.127-3.63 8.12-8.12 8.12c-1.523 0-2.924-.445-4.146-1.174L4.806 66.008l39.945-9.022c.58-.15 1.426-.587 1.822-.983.358-.358.746-1.04.99-1.822l7.027-18.276-22.492-22.488z" stroke="#FFF" stroke-width="2"/></g></svg>