<?xml version="1.0" encoding="UTF-8" standalone="no"?>
<svg width="73px" height="67px" viewBox="0 0 73 67" version="1.1" xmlns="http://www.w3.org/2000/svg" xmlns:xlink="http://www.w3.org/1999/xlink" xmlns:sketch="http://www.bohemiancoding.com/sketch/ns">
    <!-- Generator: sketchtool 3.5.1 (25234) - http://www.bohemiancoding.com/sketch -->
    <title>ico-thumbs</title>
    <desc>Created with sketchtool.</desc>
    <defs>
        <rect id="path-1" x="0" y="0" width="1440" height="1240"></rect>
    </defs>
    <g id="Page-1" stroke="none" stroke-width="1" fill="none" fill-rule="evenodd" sketch:type="MSPage">
        <g id="1-1-1-Homepage" sketch:type="MSArtboardGroup" transform="translate(-1104.000000, -1107.000000)">
            <g id="HOW-IT-WORKS" sketch:type="MSLayerGroup" transform="translate(0.000000, 800.000000)">
                <g id="IMG">
                    <mask id="mask-2" sketch:name="Mask" fill="white">
                        <use xlink:href="#path-1"></use>
                    </mask>
                    <use id="Mask" fill="#ED4F4F" sketch:type="MSShapeGroup" xlink:href="#path-1"></use>
                </g>
                <g id="03" transform="translate(961.000000, 286.000000)" stroke="#FFFFFF" stroke-width="2" sketch:type="MSShapeGroup">
                    <path d="M166.66166,50.4375332 C174.09383,39.6392325 176.729399,36.5617946 176.29,30.3119384 C175.850693,24.0620822 177.108497,22.3422783 180.102118,22.0341868 C183.095556,21.7260953 188.718797,23.3382914 189.705843,33.5680822 C190.132889,37.9943698 186.929085,46.7105136 186.929085,46.7105136 C186.929085,46.7105136 207.356915,46.7235986 209.340889,46.7235986 C212.514039,46.7235986 215,48.0633894 215,52.3338469 C215,56.3356508 210.517346,57.5387358 210.517346,57.5387358 C210.517346,57.5387358 213.386248,58.6456508 213.386248,62.010409 C213.386248,65.4177162 210.400497,66.9538731 208.434549,66.9538731 C209.658314,67.5543175 211.366954,68.7072587 210.990967,71.6220953 C210.615163,74.5353763 208.509307,75.5953502 206.430353,76.2250757 C207.773895,77.0434809 208.752706,79.3087358 208.00485,81.0506835 C206.997673,83.3962783 204.340784,85.9809711 198.376418,85.9809711 L170.513124,85.9809711 C168.401686,85.9809711 166.832497,85.0291541 166.503359,83.8568142 L166.503359,51.7391672 C166.503359,51.7391672 166.503268,50.7078339 166.66166,50.4375332 Z M145,50.8689711 L162.161255,50.8689711 L162.161255,86.3274025 L151.484379,86.3274025 L145,50.8689711 Z" id="ico-thumbs"></path>
                </g>
            </g>
        </g>
        <g id="Moviepitch---Website" sketch:type="MSArtboardGroup" transform="translate(-1354.000000, -2603.000000)"></g>
    </g>
</svg>